<svg viewBox="0 0 24 24" height="24" width="24" xmlns="http://www.w3.org/2000/svg"><g transform="matrix(1.7142857142857142,0,0,1.7142857142857142,0,0)"><path d="M3.543,1.708A1.329,1.329,0,0,1,2.235,3.047,1.362,1.362,0,0,1,.928,1.708,1.339,1.339,0,0,1,2.235.434,1.328,1.328,0,0,1,3.543,1.708ZM1.073,5.434c0-.775.485-.659,1.162-.659S3.4,4.659,3.4,5.434v7.5c0,.774-.484.62-1.163.62s-1.162.154-1.162-.62Z" fill="none" stroke="#203439" stroke-linecap="round" stroke-linejoin="round"></path><path d="M5.423,5.434c0-.436.152-.59.407-.641.2-.04,1.11-.024,1.407-.024.433,0,.42.488.413.861a2.512,2.512,0,0,1,2.242-.952,2.978,2.978,0,0,1,3.18,3.131v5.125c0,.774-.484.62-1.162.62s-1.161.154-1.161-.62v-4a1.447,1.447,0,0,0-1.518-1.6,1.454,1.454,0,0,0-1.484,1.6v4c0,.774-.485.62-1.162.62s-1.162.154-1.162-.62Z" fill="none" stroke="#203439" stroke-linecap="round" stroke-linejoin="round"></path></g></svg>