<svg viewBox="0 0 24 24" height="24" width="24" xmlns="http://www.w3.org/2000/svg"><g transform="matrix(1.7142857142857142,0,0,1.7142857142857142,0,0)"><path d="M3.5,10.5v-8a2,2,0,0,1,2-2h6.25" fill="none" stroke="#203439" stroke-linecap="round" stroke-linejoin="round"></path><path d="M10,3.5v8a2,2,0,0,1-2,2H3.5" fill="none" stroke="#203439" stroke-linecap="round" stroke-linejoin="round"></path><path d="M6,11.5V11a.5.5,0,0,0-.5-.5H1a.5.5,0,0,0-.5.5v.5a2,2,0,0,0,2,2H8A2,2,0,0,1,6,11.5Z" fill="none" stroke="#203439" stroke-linecap="round" stroke-linejoin="round"></path><path d="M11.75.5h0A1.75,1.75,0,0,1,13.5,2.25V3a.5.5,0,0,1-.5.5H10a0,0,0,0,1,0,0V2.25A1.75,1.75,0,0,1,11.75.5Z" fill="none" stroke="#203439" stroke-linecap="round" stroke-linejoin="round"></path><path d="M6.5 4L8 4" fill="none" stroke="#203439" stroke-linecap="round" stroke-linejoin="round"></path><path d="M5.5 7L8 7" fill="none" stroke="#203439" stroke-linecap="round" stroke-linejoin="round"></path></g></svg>