<svg viewBox="0 0 24 24" height="24" width="24" xmlns="http://www.w3.org/2000/svg"><g transform="matrix(1.7142857142857142,0,0,1.7142857142857142,0,0)"><path d="M1.5.5h3a1,1,0,0,1,1,1V11A2.5,2.5,0,0,1,3,13.5H3A2.5,2.5,0,0,1,.5,11V1.5a1,1,0,0,1,1-1Z" fill="none" stroke="#203439" stroke-linecap="round" stroke-linejoin="round"></path><path d="M5.5,4.964,8.985,1.479a1,1,0,0,1,1.414,0L12.521,3.6a1,1,0,0,1,0,1.414L4.769,12.766" fill="none" stroke="#203439" stroke-linecap="round" stroke-linejoin="round"></path><path d="M9.036,8.5H12.5a1,1,0,0,1,1,1v3a1,1,0,0,1-1,1H3" fill="none" stroke="#203439" stroke-linecap="round" stroke-linejoin="round"></path><path d="M0.5 4.5L5.5 4.5" fill="none" stroke="#203439" stroke-linecap="round" stroke-linejoin="round"></path><path d="M0.5 8.5L5.5 8.5" fill="none" stroke="#203439" stroke-linecap="round" stroke-linejoin="round"></path></g></svg>